<svg viewBox="0 0 512 512" width="512" height="512" xmlns="http://www.w3.org/2000/svg">
  <rect width="512" height="512" fill="#0D1A2D" rx="112"/>
  <g transform="translate(52, 136) scale(6.4)">
    <path d="M 3 30 C 3 8 61 8 61 30 C 61 52 3 52 3 30 Z" fill="none" stroke="#0EC9A2" stroke-width="1.8"/>
    <circle cx="32" cy="30" r="14" fill="none" stroke="#0EC9A2" stroke-width="1.2"/>
    <line x1="18" y1="30" x2="46" y2="30" stroke="#0EC9A2" stroke-width="0.9" opacity="0.5"/>
    <line x1="32" y1="16" x2="32" y2="44" stroke="#0EC9A2" stroke-width="0.9" opacity="0.5"/>
    <path d="M19,23 L19,17 L25,17" fill="none" stroke="#0EC9A2" stroke-width="1" stroke-linecap="round" opacity="0.4"/>
    <path d="M45,23 L45,17 L39,17" fill="none" stroke="#0EC9A2" stroke-width="1" stroke-linecap="round" opacity="0.4"/>
    <path d="M19,37 L19,43 L25,43" fill="none" stroke="#0EC9A2" stroke-width="1" stroke-linecap="round" opacity="0.4"/>
    <path d="M45,37 L45,43 L39,43" fill="none" stroke="#0EC9A2" stroke-width="1" stroke-linecap="round" opacity="0.4"/>
    <circle cx="32" cy="30" r="5" fill="#0EC9A2"/>
  </g>
</svg>
